# xmcd CD database file
#
# Track frame offsets:
#	150
#	36805
#	75582
#	115457
#	145951
#	168696
#	189514
#	230184
#	265562
#	292531
#
# Disc length: 4273 seconds
#
# Revision: 2
# Processed by: cddbd v1.5.2PL0 Copyright (c) Steve Scherf et al.
# Submitted via: CDex 1.50
#
DISCID=8710af0a
DTITLE=Amar Sundy - Live and Blues_L Diouani, O Monteil, T Jasmin B, D Mirandon, C Barbessol, E Chemali, M Bennani, A Sundy
DYEAR=2001
DGENRE=Blues
TTITLE0=Sky is crying (Elmore)
TTITLE1=As the years go passing by (Malone)
TTITLE2=Rahala (Sundy)
TTITLE3=Najma (Sundy)
TTITLE4=Come on home (Sundy&Band)
TTITLE5=Ouhalache (Sundy)
TTITLE6=Rahala (Inst.)  (Sundy)
TTITLE7=If my baby (Sundy)
TTITLE8=Quelqu'un à aimer (Sundy)
TTITLE9=Medley (BB King&Joséa, Cambell)
EXTD=Live and blues YEAR: 2001
EXTT0=
EXTT1=
EXTT2=
EXTT3=
EXTT4=
EXTT5=
EXTT6=
EXTT7=
EXTT8=
EXTT9=
PLAYORDER=
